<?xml version="1.0" standalone="no"?>
<!DOCTYPE svg PUBLIC "-//W3C//DTD SVG 20010904//EN"
 "http://www.w3.org/TR/2001/REC-SVG-20010904/DTD/svg10.dtd">
<svg version="1.0" xmlns="http://www.w3.org/2000/svg"
 width="1024.000000pt" height="1536.000000pt" viewBox="0 0 1024.000000 1536.000000"
 preserveAspectRatio="xMidYMid meet">

<g transform="translate(0.000000,1536.000000) scale(0.100000,-0.100000)"
fill="#000000" stroke="none">
<path d="M4781 13148 c-543 -34 -964 -320 -1111 -752 -67 -195 -74 -403 -24
-659 20 -103 23 -132 13 -136 -31 -10 -109 -96 -130 -144 -20 -44 -24 -68 -24
-157 0 -88 5 -118 28 -185 34 -99 71 -165 131 -232 55 -61 125 -108 186 -123
l45 -11 48 -147 c26 -81 72 -196 102 -257 l55 -109 0 -103 0 -102 -144 -178
-145 -178 -118 -54 c-663 -303 -984 -458 -1059 -508 -66 -45 -143 -124 -193
-196 -87 -127 -161 -361 -271 -857 -79 -354 -187 -899 -220 -1112 l-13 -78
-184 0 c-238 0 -271 12 -319 115 l-24 50 0 2331 c0 2609 -6 2395 73 2481 22
24 59 54 82 66 l40 22 926 3 926 2 6 103 c4 56 9 119 13 140 l7 37 -929 0
c-1021 0 -1007 0 -1133 -61 -122 -60 -230 -195 -267 -334 -11 -41 -14 -497
-14 -2570 0 -1526 -4 -2533 -9 -2553 -5 -17 -99 -155 -209 -305 -110 -150
-208 -288 -218 -307 -25 -50 -23 -149 6 -224 30 -79 116 -165 196 -197 l59
-24 4125 -3 c2738 -1 4143 1 4179 8 115 21 205 90 257 195 25 51 29 72 29 140
0 98 9 82 -250 435 l-195 265 -2 1715 -3 1715 -70 -120 c-38 -66 -100 -171
-137 -233 l-68 -113 0 -1303 c0 -947 -3 -1312 -11 -1337 -18 -53 -58 -99 -103
-120 -38 -17 -71 -19 -395 -19 -332 0 -353 1 -346 18 40 97 145 386 145 397 0
8 -7 15 -16 15 -9 0 -14 5 -11 13 64 150 106 261 101 268 -3 5 -11 9 -18 9 -8
0 -24 8 -36 18 -18 15 -21 24 -15 55 7 34 14 41 69 69 103 51 204 128 283 212
143 155 194 316 145 460 l-20 59 21 30 c29 38 28 130 -2 209 l-22 56 24 26
c66 71 60 204 -11 280 -31 32 -116 76 -149 76 -13 0 -23 5 -23 10 0 17 619
1056 908 1525 171 277 272 450 272 466 0 37 -39 69 -83 69 -29 0 -41 -6 -60
-32 -36 -48 -222 -338 -450 -703 -469 -751 -707 -1125 -714 -1125 -3 0 -16 9
-30 20 -35 27 -96 42 -139 34 -37 -7 -40 -10 -199 -173 -55 -57 -141 -136
-191 -176 -160 -129 -213 -207 -270 -400 -24 -81 -27 -112 -33 -315 -6 -207
-12 -249 -36 -278 -2 -2 -15 4 -29 13 l-25 17 -66 -132 c-38 -75 -71 -130 -78
-127 -6 2 -31 77 -55 168 -248 945 -291 1069 -407 1184 -87 87 -305 200 -791
411 -150 65 -187 85 -229 126 -27 27 -73 65 -102 84 -51 36 -52 37 -58 98 l-6
61 98 100 c169 171 243 321 330 665 7 28 15 36 43 44 57 16 141 109 188 206
55 115 75 196 76 310 1 116 -18 179 -75 244 l-41 46 25 128 c92 460 44 746
-158 948 -77 78 -157 123 -231 132 -30 3 -48 10 -51 21 -14 39 -79 114 -136
157 -194 146 -477 206 -856 182z m916 -742 c181 -259 249 -453 260 -747 l6
-156 -24 -6 c-13 -4 -38 -7 -56 -7 -29 0 -33 5 -61 65 -63 134 -185 223 -321
233 -166 12 -325 -75 -390 -212 l-20 -44 -43 9 c-43 8 -111 -3 -135 -23 -8 -6
-17 4 -32 38 -44 99 -131 177 -239 215 -168 59 -392 -41 -476 -214 -31 -63
-36 -65 -140 -51 l-46 7 0 50 c0 95 30 263 81 458 l9 36 237 6 c531 13 877
115 1189 348 50 37 96 75 104 83 7 9 15 16 19 16 3 0 39 -47 78 -104z m-110
-780 c88 -45 137 -133 137 -246 0 -165 -103 -280 -250 -280 -124 0 -226 75
-263 195 -25 81 -26 107 -4 174 18 58 66 119 118 151 64 39 193 42 262 6z
m-987 8 c75 -22 149 -98 174 -178 42 -134 -16 -271 -141 -332 -135 -66 -295
-10 -357 126 -30 65 -29 199 1 256 64 121 185 169 323 128z m-811 -190 c17
-14 43 -47 58 -73 14 -25 33 -52 41 -58 37 -31 102 -3 102 44 0 22 4 23 64 23
l63 0 11 -65 c30 -180 149 -304 325 -336 219 -40 443 128 465 349 7 65 8 66
44 80 22 9 51 12 70 8 33 -6 34 -8 36 -59 1 -29 9 -78 17 -108 8 -30 33 -124
55 -209 39 -154 39 -155 19 -175 -16 -17 -37 -21 -132 -25 l-112 -5 -3 -47
c-3 -40 0 -49 21 -63 30 -19 183 -22 248 -5 55 15 105 65 115 115 6 36 -5 126
-22 170 -6 17 -5 18 7 8 8 -6 41 -19 73 -28 88 -26 215 -18 288 18 111 54 187
164 211 302 l11 65 39 0 40 0 -7 -102 c-25 -362 -106 -717 -209 -912 -49 -93
-192 -246 -292 -313 -154 -103 -318 -163 -445 -163 -165 0 -505 148 -659 286
-116 104 -215 300 -306 606 l-38 127 -57 -6 c-70 -7 -98 6 -163 76 -93 99
-151 280 -128 393 22 102 85 137 150 82z m2381 -33 c15 -29 12 -168 -5 -236
-18 -71 -75 -188 -111 -230 l-26 -30 6 40 c7 46 32 276 41 378 6 59 10 69 33
82 36 19 49 18 62 -4z m-1753 -1469 c103 -61 261 -130 388 -168 177 -52 348
-32 548 66 44 22 82 40 84 40 2 0 3 -21 3 -46 0 -41 -6 -53 -62 -122 -79 -97
-269 -288 -326 -326 -50 -34 -44 -36 -207 61 -219 132 -417 271 -547 386 l-68
59 0 95 0 94 50 -43 c27 -24 89 -67 137 -96z m-234 -205 c158 -134 386 -294
593 -417 l110 -64 -142 -141 c-78 -77 -158 -160 -178 -185 l-37 -45 -27 31
c-15 17 -58 65 -95 107 -65 73 -72 85 -161 299 -51 123 -105 258 -120 300 -31
89 -35 168 -9 168 2 0 32 -24 66 -53z m1387 -77 c23 -23 23 -25 9 -161 -10
-104 -71 -447 -87 -489 -8 -21 -9 -21 -42 17 -49 56 -167 158 -235 204 l-60
40 155 157 c85 86 171 178 190 204 19 26 38 48 43 48 4 0 16 -9 27 -20z
m-1744 -182 c-4 -24 -23 -117 -43 -208 -20 -91 -38 -176 -40 -190 -4 -23 6
-31 114 -89 203 -110 215 -120 197 -167 -5 -13 -53 -68 -106 -123 l-98 -100
56 -97 c288 -499 681 -1080 983 -1453 164 -202 153 -181 90 -181 l-54 0 -116
148 c-172 219 -302 395 -442 602 -250 371 -580 906 -601 977 -6 18 11 42 95
133 56 61 100 112 98 114 -20 15 -143 83 -218 121 -110 55 -106 16 -33 319 51
214 60 236 105 236 17 0 19 -5 13 -42z m2107 -19 c20 -9 104 -159 185 -332 2
-5 -38 -48 -89 -97 l-94 -89 70 -63 c39 -35 90 -82 115 -105 l45 -41 -19 -74
c-51 -199 -253 -763 -373 -1043 -35 -82 -130 -284 -211 -447 l-146 -298 -43 0
c-24 0 -43 2 -43 5 0 4 62 131 138 283 146 292 247 522 361 818 75 195 199
560 226 664 l17 65 -121 113 c-67 63 -121 121 -121 129 0 8 43 57 96 107 l96
92 -45 90 c-46 91 -97 210 -97 226 0 11 25 10 53 -3z m2283 -210 c18 -20 18
-22 -17 -86 -52 -94 -105 -164 -151 -198 -58 -44 -79 -83 -79 -152 0 -32 4
-71 10 -86 10 -25 8 -33 -15 -60 -14 -16 -43 -65 -64 -108 -22 -42 -62 -116
-90 -163 l-50 -85 17 -35 c29 -61 84 -47 129 32 15 26 29 49 30 51 2 1 12 -5
23 -16 18 -16 19 -24 10 -59 -21 -83 25 -168 106 -200 93 -35 235 4 309 86 38
42 47 86 21 96 -9 4 -64 -10 -123 -30 -59 -20 -121 -36 -138 -36 -65 0 -73 53
-15 99 54 43 194 108 269 125 l64 15 19 -42 c27 -61 25 -149 -6 -215 -59 -127
-186 -248 -346 -330 -98 -51 -129 -85 -129 -145 0 -25 -3 -27 -22 -22 -74 22
-320 176 -411 256 l-37 34 27 55 c28 54 28 57 29 260 2 215 8 266 50 393 37
111 74 159 209 271 66 55 167 149 225 208 58 59 110 108 116 108 6 0 19 -9 30
-21z m-2741 -419 c9 0 25 5 36 10 16 9 19 7 19 -8 0 -43 -127 -912 -134 -919
-2 -2 -9 31 -15 74 -21 132 -99 510 -139 674 l-38 156 17 64 c10 35 23 84 29
109 l12 45 99 -103 c54 -56 105 -102 114 -102z m3025 154 c27 -23 31 -32 28
-68 -3 -40 -4 -41 -48 -47 -55 -9 -72 -15 -229 -87 l-124 -56 -18 23 c-26 31
-24 73 4 98 29 27 116 82 201 127 86 46 140 48 186 10z m-3623 -77 l63 -92
-20 -130 c-24 -166 -55 -447 -75 -690 -9 -104 -17 -194 -19 -200 -1 -5 -13 22
-26 60 -37 115 -206 561 -348 925 -3 8 11 0 31 -17 37 -32 69 -41 94 -25 7 4
31 32 53 62 49 66 169 200 178 200 4 0 35 -42 69 -93z m-1986 -194 c129 -140
230 -413 278 -748 33 -231 41 -379 41 -746 l0 -349 -40 0 -40 0 0 308 c0 476
-24 751 -89 1018 -48 193 -106 325 -198 446 -46 60 -53 91 -26 107 21 11 39 2
74 -36z m5598 -33 c13 -24 21 -52 19 -71 -3 -30 -5 -32 -96 -55 -51 -13 -152
-48 -224 -79 -122 -52 -132 -55 -153 -41 -32 21 -40 52 -22 80 16 24 291 167
368 191 71 22 83 19 108 -25z m-1839 -380 c4 -14 3 -61 -1 -105 -29 -289 -63
-687 -83 -973 -13 -184 -28 -338 -34 -344 -5 -5 -22 -8 -38 -6 l-29 3 3 105
c6 261 98 1309 117 1339 13 22 58 8 65 -19z m847 -473 c144 -115 373 -250 501
-295 l32 -11 -14 -38 c-23 -61 -46 -113 -51 -113 -14 0 -258 128 -335 176
-101 62 -269 189 -276 209 -5 12 51 135 61 135 2 0 39 -28 82 -63z m1609
-1502 c164 -219 176 -237 166 -260 l-12 -25 -4138 0 c-3205 0 -4141 3 -4150
12 -7 7 -12 19 -12 28 0 14 214 309 317 438 l34 42 3810 0 3809 0 176 -235z"/>
<path d="M5381 11404 c-30 -38 -27 -80 8 -115 31 -31 59 -36 94 -17 33 17 46
39 47 76 0 75 -104 114 -149 56z"/>
<path d="M4489 11401 c-17 -18 -29 -40 -29 -56 0 -32 49 -85 79 -85 80 0 118
93 61 150 -30 30 -76 26 -111 -9z"/>
<path d="M4626 10561 c-12 -14 -16 -27 -11 -43 28 -87 114 -189 198 -231 147
-75 323 -52 446 59 81 73 140 214 96 230 -9 4 -64 -1 -123 -10 -135 -21 -358
-21 -472 -1 -108 19 -113 19 -134 -4z"/>
<path d="M4146 6239 c-30 -24 -34 -63 -10 -97 l15 -22 973 0 c930 0 974 1 989
18 26 29 22 77 -9 101 -27 21 -31 21 -979 21 -948 0 -952 0 -979 -21z"/>
<path d="M6394 12080 l1 -140 1102 0 c1084 0 1103 0 1157 -20 57 -22 118 -78
153 -141 17 -32 18 -80 23 -746 l5 -712 138 222 138 222 -3 510 c-3 505 -3
511 -26 575 -58 161 -187 287 -351 343 l-66 22 -1136 3 -1137 2 2 -140z"/>
<path d="M6856 11174 c-38 -38 -36 -95 3 -135 l29 -29 707 0 c748 0 751 0 769
45 10 27 6 89 -7 106 -30 39 -36 39 -765 39 l-709 0 -27 -26z"/>
<path d="M2032 10800 c-102 -21 -201 -104 -250 -208 l-27 -57 -3 -333 c-3
-285 -1 -342 13 -390 45 -154 177 -262 322 -262 l43 0 0 -150 c0 -137 2 -152
20 -170 11 -11 23 -20 28 -20 19 0 60 40 174 168 66 75 127 144 135 152 11 13
70 16 366 20 l352 5 50 27 c68 35 128 97 162 166 l28 57 0 365 0 365 -26 55
c-41 85 -90 135 -177 177 l-76 38 -545 2 c-301 0 -565 -3 -589 -7z m267 -555
c56 -28 61 -107 9 -150 -38 -32 -78 -32 -117 1 -26 21 -31 33 -31 69 0 36 5
48 31 69 35 29 67 33 108 11z m364 -9 c33 -31 43 -68 27 -107 -26 -63 -118
-76 -160 -22 -69 87 52 204 133 129z m356 -2 c43 -36 44 -93 2 -135 -37 -37
-79 -38 -119 -4 -38 32 -47 67 -27 109 28 59 93 73 144 30z"/>
<path d="M6859 10701 c-40 -41 -40 -91 0 -132 l29 -29 505 0 504 0 27 25 c37
34 37 101 0 136 l-26 24 -504 3 -505 3 -30 -30z"/>
<path d="M8690 5017 c-81 -19 -123 -43 -177 -100 -94 -99 -143 -219 -164 -397
-15 -132 -6 -345 19 -465 38 -176 126 -306 244 -361 58 -27 72 -29 183 -29
144 0 222 22 313 90 103 75 102 71 102 374 l0 261 -198 0 c-109 0 -201 -2
-203 -4 -2 -2 -3 -53 -1 -113 l3 -108 80 4 79 3 0 -92 c0 -77 -4 -99 -21 -127
-35 -57 -123 -86 -192 -64 -47 16 -101 77 -121 137 -33 100 -47 400 -26 548
25 169 105 253 217 225 59 -15 108 -71 130 -149 12 -46 20 -59 32 -56 9 2 60
7 114 11 l97 7 0 43 c0 103 -67 234 -151 295 -90 65 -244 93 -359 67z"/>
<path d="M4110 5005 c0 -5 -204 -867 -269 -1139 -23 -92 -41 -170 -41 -172 0
-3 57 -3 127 -2 l126 3 26 120 26 120 158 3 c86 1 157 1 157 -2 0 -5 38 -192
45 -223 5 -22 9 -23 136 -23 72 0 128 4 125 8 -3 5 -71 294 -151 643 -80 349
-148 642 -151 652 -5 15 -21 17 -160 17 -85 0 -154 -2 -154 -5z m210 -585 c27
-134 50 -250 50 -257 0 -10 -28 -13 -111 -13 -110 0 -111 0 -107 23 3 12 26
126 52 252 49 240 56 267 62 250 2 -5 26 -120 54 -255z"/>
<path d="M940 4345 l0 -655 315 0 315 0 0 115 0 115 -190 0 -190 0 0 155 0
155 165 0 165 0 0 115 0 115 -165 0 -165 0 0 155 0 155 185 0 186 0 -3 113 -3
112 -307 3 -308 2 0 -655z"/>
<path d="M2300 4345 l0 -655 305 0 305 0 0 115 0 115 -185 0 -185 0 0 540 0
540 -120 0 -120 0 0 -655z"/>
<path d="M3060 4345 l0 -655 315 0 315 0 0 115 0 115 -190 0 -190 0 0 155 0
155 165 0 165 0 0 115 0 115 -165 0 -165 0 0 155 0 155 185 0 185 0 0 115 0
115 -310 0 -310 0 0 -655z"/>
<path d="M4860 4346 l0 -656 125 0 125 0 0 224 0 224 46 4 c25 2 48 -1 51 -5
3 -5 43 -106 88 -224 46 -118 85 -217 88 -219 2 -3 63 -3 135 -2 l130 3 -104
250 c-57 137 -102 250 -101 250 30 12 94 65 117 96 58 81 74 140 74 279 0 106
-4 134 -23 183 -31 80 -77 136 -141 175 -97 58 -132 64 -382 70 l-228 4 0
-656z m441 403 c61 -31 83 -86 77 -199 -7 -147 -50 -190 -190 -190 l-78 0 0
205 0 205 75 0 c57 0 86 -5 116 -21z"/>
<path d="M5810 4345 l0 -655 120 0 120 0 1 408 c0 367 2 403 15 367 8 -22 85
-205 171 -407 l156 -368 129 0 128 0 0 655 0 655 -115 0 -115 0 0 -417 c0
-240 -4 -413 -9 -408 -5 6 -14 27 -21 49 -7 21 -81 203 -165 405 l-153 366
-131 3 -131 3 0 -656z"/>
<path d="M6870 4345 l0 -655 123 0 122 0 -2 547 c-1 302 -2 596 -2 656 l-1
107 -120 0 -120 0 0 -655z"/>
<path d="M7340 4345 l0 -655 115 0 115 0 0 407 c0 224 4 403 8 397 5 -5 14
-27 20 -49 7 -22 81 -200 165 -395 l152 -355 128 -3 127 -3 0 656 0 655 -115
0 -115 0 -2 -417 c-2 -230 -7 -409 -11 -398 -4 11 -31 79 -60 150 -28 72 -101
249 -162 395 l-110 265 -128 3 -127 3 0 -656z"/>
<path d="M1720 4290 l0 -110 195 0 195 0 0 110 0 110 -195 0 -195 0 0 -110z"/>
</g>
</svg>
